<?xml version="1.0" standalone="no"?>
<!DOCTYPE svg PUBLIC "-//W3C//DTD SVG 20010904//EN"
 "http://www.w3.org/TR/2001/REC-SVG-20010904/DTD/svg10.dtd">
<svg version="1.0" xmlns="http://www.w3.org/2000/svg"
 width="512.000000pt" height="512.000000pt" viewBox="0 0 512.000000 512.000000"
 preserveAspectRatio="xMidYMid meet">

<g transform="translate(0.000000,512.000000) scale(0.100000,-0.100000)"
fill="#000000" stroke="none">
<path d="M0 2560 l0 -2560 2560 0 2560 0 0 2560 0 2560 -2560 0 -2560 0 0
-2560z m4361 2018 c61 -21 128 -68 162 -116 72 -99 67 46 66 -1896 0 -962 -3
-1754 -7 -1760 -3 -6 -7 -15 -7 -21 -2 -28 -18 -75 -26 -75 -5 0 -8 -6 -6 -12
1 -7 -3 -12 -9 -11 -7 1 -11 -5 -10 -15 0 -9 -5 -16 -12 -14 -8 1 -11 -1 -8
-6 3 -4 -7 -20 -22 -34 -31 -28 -92 -62 -92 -51 0 5 -4 1 -9 -6 -6 -9 -26 -15
-49 -15 -22 -1 -38 -4 -35 -9 2 -4 -152 -6 -344 -5 -283 3 -347 5 -345 16 1 8
-2 11 -8 7 -6 -3 -8 -10 -5 -14 8 -13 -389 -10 -397 3 -6 8 -8 8 -8 -1 0 -16
-409 -16 -429 0 -11 9 -13 9 -8 0 10 -17 -210 -18 -231 -1 -10 8 -13 9 -9 1
10 -16 -131 -17 -152 0 -10 8 -13 8 -8 0 10 -16 -131 -17 -152 0 -10 8 -13 8
-8 0 10 -16 -131 -17 -152 0 -10 8 -13 8 -8 0 10 -17 -210 -18 -231 -1 -10 8
-13 9 -9 1 5 -8 -25 -12 -114 -12 -95 -1 -119 1 -113 11 6 10 4 11 -7 1 -9 -9
-48 -13 -119 -13 -71 0 -110 4 -119 13 -9 7 -12 8 -7 0 4 -8 -26 -12 -115 -12
-95 -1 -119 1 -113 11 6 9 3 9 -9 -1 -13 -10 -48 -12 -154 -9 -151 5 -219 21
-217 51 2 14 -1 15 -11 7 -11 -9 -24 -2 -60 31 -27 25 -44 48 -41 56 3 8 2 11
-4 8 -5 -3 -14 4 -21 17 -39 73 -39 57 -39 1869 0 1940 -5 1791 67 1891 33 46
99 94 158 116 45 16 3559 16 3606 0z"/>
<path d="M1605 4015 c-80 -23 -106 -33 -141 -57 -62 -41 -109 -102 -118 -153
-1 -5 -4 -14 -8 -20 -16 -28 -29 -166 -16 -182 5 -6 5 -14 0 -17 -10 -6 -8
-49 6 -100 6 -22 9 -43 6 -48 -3 -4 -1 -8 3 -8 5 0 9 -8 10 -17 1 -10 7 -31
14 -48 7 -16 11 -36 10 -44 -1 -8 2 -10 10 -5 9 5 10 2 6 -9 -4 -12 -1 -17 10
-17 13 0 14 -2 2 -17 -8 -9 -9 -14 -4 -11 6 3 16 0 23 -8 7 -8 10 -14 5 -14
-4 0 2 -7 13 -15 10 -8 24 -14 29 -15 6 0 3 5 -5 10 -11 7 -8 10 15 10 17 0
36 -5 43 -12 7 -7 12 -8 12 -3 0 5 6 1 13 -10 11 -14 16 -15 22 -5 5 8 4 11
-2 7 -6 -4 -13 -1 -16 7 -4 10 6 13 39 13 27 0 41 -4 37 -10 -4 -6 -1 -7 8 -1
19 11 51 16 45 6 -2 -4 5 -14 17 -21 18 -11 20 -11 10 0 -21 22 -15 27 32 27
30 0 43 -3 39 -10 -5 -7 -2 -8 7 -2 20 13 82 14 97 2 9 -8 11 -6 7 8 -3 10 2
6 10 -11 12 -22 15 -24 12 -8 -5 20 -1 22 39 21 25 0 47 -5 50 -10 4 -5 10 -5
17 0 13 10 44 13 66 6 11 -3 10 -9 -3 -29 -9 -14 -13 -24 -9 -23 8 3 13 -5 13
-23 0 -5 -6 -7 -12 -4 -7 4 -4 -1 6 -9 11 -9 14 -16 8 -16 -9 0 -10 -5 -2 -19
6 -13 7 -22 0 -26 -6 -4 -6 -15 0 -31 7 -17 6 -32 -1 -46 -7 -13 -7 -23 -1
-27 5 -3 8 -15 6 -25 -4 -26 -7 -80 -4 -86 7 -21 7 -40 -1 -40 -6 0 -6 -7 -2
-17 10 -22 10 -44 0 -60 -5 -8 -3 -13 4 -13 7 0 5 -8 -7 -22 -10 -12 -13 -18
-5 -13 11 6 13 3 9 -13 -4 -12 -3 -24 2 -27 8 -5 4 -60 -5 -75 -3 -5 -1 -12 5
-15 8 -5 7 -11 -1 -21 -6 -8 -8 -14 -3 -14 5 0 9 -18 9 -40 0 -22 -4 -40 -8
-40 -4 0 -4 -8 0 -17 9 -19 9 -73 0 -110 -3 -13 -1 -25 5 -29 6 -4 5 -10 -3
-15 -10 -6 -10 -9 -2 -9 9 0 10 -7 3 -25 -6 -16 -6 -25 0 -25 6 0 6 -9 0 -24
-5 -13 -6 -26 -3 -29 10 -10 9 -67 -1 -67 -6 0 -5 -5 2 -12 8 -8 8 -17 1 -31
-8 -15 -8 -18 1 -12 9 6 9 2 1 -14 -7 -11 -8 -21 -3 -21 4 0 8 -9 8 -20 0 -11
-3 -20 -6 -20 -4 0 -4 -23 0 -50 4 -28 3 -53 -2 -56 -5 -3 -5 -11 -1 -17 9
-16 11 -47 3 -47 -9 0 -5 -44 6 -61 4 -8 3 -9 -4 -5 -9 5 -9 0 -2 -18 6 -17 6
-26 -1 -26 -6 0 -6 -8 2 -21 7 -13 7 -19 1 -15 -7 4 -8 -3 -2 -24 5 -16 5 -30
1 -30 -3 0 -7 -9 -7 -19 0 -11 4 -17 8 -15 11 7 10 -4 -2 -27 -8 -14 -7 -19 1
-19 8 0 8 -4 -1 -15 -7 -8 -8 -15 -3 -15 5 0 9 -9 9 -20 0 -11 -5 -20 -11 -20
-5 0 -3 -5 5 -10 8 -5 12 -10 8 -10 -3 0 -2 -16 4 -36 13 -49 19 -77 20 -91 1
-7 5 -10 10 -7 7 5 13 -18 9 -39 -1 -5 3 -6 9 -2 5 3 10 -1 10 -10 0 -9 5 -13
10 -10 6 3 10 2 10 -4 0 -13 43 -56 64 -64 9 -4 16 -11 16 -17 0 -6 5 -8 10
-5 6 3 10 2 10 -3 0 -5 7 -9 15 -10 8 -1 22 -3 30 -4 8 -1 12 -5 10 -9 -3 -4
2 -10 11 -13 8 -3 13 -2 10 3 -3 4 6 6 19 3 14 -2 25 -9 25 -15 0 -7 4 -7 12
1 10 10 16 8 30 -10 10 -13 16 -16 13 -8 -4 11 1 16 14 16 11 0 17 -4 15 -8
-3 -4 -2 -8 3 -9 4 0 18 -2 31 -5 15 -3 22 1 22 12 0 12 4 14 13 7 6 -5 26 -8
42 -7 17 2 63 5 103 7 40 3 76 7 79 10 3 4 12 0 20 -8 8 -8 19 -15 26 -15 6 0
3 6 -7 13 -17 12 -15 14 19 15 21 1 46 4 57 8 10 3 26 0 34 -7 12 -10 13 -9 8
5 -4 9 -3 16 2 14 5 -1 30 4 56 11 40 11 46 16 38 30 -5 10 -5 23 0 31 5 9 5
19 -1 26 -7 8 -7 14 0 18 7 5 7 15 1 31 -5 14 -6 25 -1 25 5 0 5 18 1 40 -4
22 -3 40 2 40 5 0 4 8 -1 19 -6 10 -7 21 -4 25 4 3 5 32 4 64 -6 117 -6 152 1
152 4 0 3 11 -2 24 -5 13 -6 27 -2 30 6 7 5 66 -3 105 -2 11 0 21 5 21 6 0 6
9 1 23 -5 13 -5 30 -1 37 5 9 4 20 -2 27 -7 9 -7 13 1 13 7 0 9 5 6 11 -10 15
-11 129 -2 129 5 0 5 4 2 10 -9 15 -12 90 -3 90 4 0 3 11 -2 24 -6 17 -4 30 7
46 9 13 11 20 5 16 -6 -3 -13 -2 -17 4 -3 5 -1 10 5 10 6 0 8 5 4 12 -10 16
-11 108 -1 108 5 0 5 4 2 10 -11 19 -14 50 -4 50 6 0 7 6 3 12 -12 19 -11 188
1 188 7 0 7 3 0 8 -11 8 -14 172 -3 172 4 0 3 11 -2 25 -5 13 -5 27 -1 29 5 3
5 23 1 45 -4 25 -3 44 3 50 8 8 7 11 -1 11 -9 0 -10 5 -3 19 6 10 8 21 5 23
-8 9 -10 179 -2 184 5 3 8 0 8 -7 0 -7 3 -9 6 -6 4 4 1 13 -6 22 -7 9 -10 18
-6 22 3 3 6 1 6 -6 0 -7 5 -9 10 -6 6 3 10 2 10 -3 0 -6 7 -13 16 -16 14 -5
15 -4 4 9 -10 13 -9 15 9 15 14 0 20 -4 15 -12 -5 -7 -3 -8 7 -2 21 13 131 15
123 2 -5 -7 -2 -8 7 -2 21 13 93 14 101 1 6 -9 8 -9 8 1 0 6 9 12 21 12 13 0
18 -4 13 -12 -5 -8 0 -7 11 2 17 13 18 13 13 -1 -4 -9 -1 -16 7 -16 7 0 11 6
8 14 -4 10 3 13 24 11 16 -1 34 1 41 6 8 4 12 1 13 -11 0 -16 1 -17 11 -1 11
14 14 15 37 1 22 -13 23 -13 8 0 -17 14 -16 15 3 20 11 3 20 1 20 -4 0 -5 5
-9 12 -9 6 0 8 3 5 7 -8 8 69 53 91 53 8 0 13 3 9 6 -3 3 5 16 19 29 13 12 24
27 24 34 0 6 5 11 10 11 6 0 14 8 17 18 4 9 14 23 22 30 9 8 10 11 4 7 -16 -8
-17 7 -1 23 7 7 8 12 3 12 -4 0 0 9 9 19 12 13 14 21 6 26 -5 3 -7 12 -3 18
11 17 12 174 2 210 -5 17 -10 45 -11 64 -1 18 -6 33 -11 33 -5 0 -7 9 -4 20 3
11 1 20 -4 20 -5 0 -12 12 -15 28 -4 15 -20 48 -36 75 l-30 47 -1037 -1 c-570
0 -1040 -2 -1046 -4z m1320 -55 c3 -5 1 -10 -4 -10 -6 0 -11 5 -11 10 0 6 2
10 4 10 3 0 8 -4 11 -10z m-680 -29 c3 -5 2 -12 -3 -15 -5 -3 -9 1 -9 9 0 17
3 19 12 6z m-718 -166 c0 -8 -4 -12 -9 -9 -5 3 -6 10 -3 15 9 13 12 11 12 -6z
m1247 -203 c3 -5 -1 -9 -9 -9 -8 0 -12 4 -9 9 3 4 7 8 9 8 2 0 6 -4 9 -8z
m-1167 -137 c0 -8 -4 -12 -9 -9 -5 3 -6 10 -3 15 9 13 12 11 12 -6z m1078 -14
c3 -5 2 -12 -3 -15 -5 -3 -9 1 -9 9 0 17 3 19 12 6z m-151 -249 c3 -5 -1 -9
-9 -9 -8 0 -12 4 -9 9 3 4 7 8 9 8 2 0 6 -4 9 -8z m-234 -238 c0 -8 -19 -13
-24 -6 -3 5 1 9 9 9 8 0 15 -2 15 -3z"/>
<path d="M3867 3439 c7 -7 15 -10 18 -7 3 3 -2 9 -12 12 -14 6 -15 5 -6 -5z"/>
<path d="M3620 3250 c-8 -5 -10 -10 -5 -10 6 0 17 5 25 10 8 5 11 10 5 10 -5
0 -17 -5 -25 -10z"/>
<path d="M3610 3219 c0 -5 5 -7 10 -4 6 3 10 8 10 11 0 2 -4 4 -10 4 -5 0 -10
-5 -10 -11z"/>
<path d="M1481 3204 c0 -11 3 -14 6 -6 3 7 2 16 -1 19 -3 4 -6 -2 -5 -13z"/>
<path d="M1600 3211 c0 -6 4 -13 10 -16 6 -3 7 1 4 9 -7 18 -14 21 -14 7z"/>
<path d="M1750 3211 c0 -6 4 -13 10 -16 6 -3 7 1 4 9 -7 18 -14 21 -14 7z"/>
<path d="M1841 3204 c0 -11 3 -14 6 -6 3 7 2 16 -1 19 -3 4 -6 -2 -5 -13z"/>
<path d="M1925 3210 c-3 -6 1 -7 9 -4 18 7 21 14 7 14 -6 0 -13 -4 -16 -10z"/>
<path d="M2021 3207 c-8 -10 -7 -14 2 -14 8 0 14 6 14 14 0 7 -1 13 -2 13 -2
0 -8 -6 -14 -13z"/>
<path d="M3161 3204 c0 -11 3 -14 6 -6 3 7 2 16 -1 19 -3 4 -6 -2 -5 -13z"/>
<path d="M3196 3205 c-3 -8 -1 -15 4 -15 6 0 10 7 10 15 0 8 -2 15 -4 15 -2 0
-6 -7 -10 -15z"/>
<path d="M3346 3203 c-6 -14 -5 -15 5 -6 7 7 10 15 7 18 -3 3 -9 -2 -12 -12z"/>
<path d="M3470 3211 c0 -6 4 -13 10 -16 6 -3 7 1 4 9 -7 18 -14 21 -14 7z"/>
<path d="M1635 3200 c-3 -6 1 -7 9 -4 18 7 21 14 7 14 -6 0 -13 -4 -16 -10z"/>
<path d="M1795 3200 c3 -5 8 -10 11 -10 2 0 4 5 4 10 0 6 -5 10 -11 10 -5 0
-7 -4 -4 -10z"/>
<path d="M3106 3202 c-2 -4 4 -8 14 -8 10 0 16 4 14 8 -3 4 -9 8 -14 8 -5 0
-11 -4 -14 -8z"/>
<path d="M3236 3202 c-2 -4 4 -8 14 -8 10 0 16 4 14 8 -3 4 -9 8 -14 8 -5 0
-11 -4 -14 -8z"/>
<path d="M3295 3200 c-3 -6 1 -7 9 -4 18 7 21 14 7 14 -6 0 -13 -4 -16 -10z"/>
<path d="M3510 3185 c0 -7 30 -13 34 -7 3 4 -4 9 -15 9 -10 1 -19 0 -19 -2z"/>
<path d="M1830 3160 c0 -5 5 -10 10 -10 6 0 10 5 10 10 0 6 -4 10 -10 10 -5 0
-10 -4 -10 -10z"/>
<path d="M3190 3161 c0 -6 4 -12 8 -15 5 -3 9 1 9 9 0 8 -4 15 -9 15 -4 0 -8
-4 -8 -9z"/>
<path d="M1535 3141 c-3 -5 -2 -12 3 -15 5 -3 9 1 9 9 0 17 -3 19 -12 6z"/>
<path d="M1779 3148 c-5 -18 -6 -38 -1 -34 7 8 12 36 6 36 -2 0 -4 -1 -5 -2z"/>
<path d="M1930 3140 c0 -5 5 -10 11 -10 5 0 7 5 4 10 -3 6 -8 10 -11 10 -2 0
-4 -4 -4 -10z"/>
<path d="M3050 3139 c0 -5 5 -7 10 -4 6 3 10 8 10 11 0 2 -4 4 -10 4 -5 0 -10
-5 -10 -11z"/>
<path d="M3095 3140 c3 -5 8 -10 11 -10 2 0 4 5 4 10 0 6 -5 10 -11 10 -5 0
-7 -4 -4 -10z"/>
<path d="M3135 3140 c-3 -5 -1 -10 4 -10 6 0 11 5 11 10 0 6 -2 10 -4 10 -3 0
-8 -4 -11 -10z"/>
<path d="M3255 3141 c-3 -5 -2 -12 3 -15 5 -3 9 1 9 9 0 17 -3 19 -12 6z"/>
<path d="M3395 3140 c3 -5 8 -10 11 -10 2 0 4 5 4 10 0 6 -5 10 -11 10 -5 0
-7 -4 -4 -10z"/>
<path d="M1999 3093 c-12 -16 -12 -17 2 -6 9 7 20 9 24 5 5 -4 5 -1 1 6 -9 16
-11 15 -27 -5z"/>
<path d="M3054 3096 c1 -8 5 -18 8 -22 4 -3 5 1 4 10 -1 8 -5 18 -8 22 -4 3
-5 -1 -4 -10z"/>
<path d="M1710 3080 c0 -5 5 -10 11 -10 5 0 7 5 4 10 -3 6 -8 10 -11 10 -2 0
-4 -4 -4 -10z"/>
<path d="M3075 2809 c-4 -6 -5 -12 -2 -15 2 -3 7 2 10 11 7 17 1 20 -8 4z"/>
<path d="M2050 2779 c0 -5 5 -7 10 -4 6 3 10 8 10 11 0 2 -4 4 -10 4 -5 0 -10
-5 -10 -11z"/>
<path d="M4195 2440 c3 -5 8 -10 11 -10 2 0 4 5 4 10 0 6 -5 10 -11 10 -5 0
-7 -4 -4 -10z"/>
<path d="M3470 1879 c0 -5 5 -7 10 -4 6 3 10 8 10 11 0 2 -4 4 -10 4 -5 0 -10
-5 -10 -11z"/>
<path d="M3466 1802 c-3 -5 1 -9 9 -9 8 0 12 4 9 9 -3 4 -7 8 -9 8 -2 0 -6 -4
-9 -8z"/>
<path d="M2990 1130 c-9 -6 -10 -10 -3 -10 6 0 15 5 18 10 8 12 4 12 -15 0z"/>
<path d="M2940 1116 c0 -2 7 -7 16 -10 8 -3 12 -2 9 4 -6 10 -25 14 -25 6z"/>
<path d="M2890 1100 c0 -5 5 -10 11 -10 5 0 7 5 4 10 -3 6 -8 10 -11 10 -2 0
-4 -4 -4 -10z"/>
<path d="M2370 1091 c0 -6 4 -13 10 -16 6 -3 7 1 4 9 -7 18 -14 21 -14 7z"/>
<path d="M2846 1083 c-6 -14 -5 -15 5 -6 7 7 10 15 7 18 -3 3 -9 -2 -12 -12z"/>
<path d="M2413 1071 c0 -11 5 -18 9 -15 4 3 5 11 1 19 -7 21 -12 19 -10 -4z"/>
<path d="M2693 1075 c0 -8 4 -12 9 -9 5 3 6 10 3 15 -9 13 -12 11 -12 -6z"/>
<path d="M2723 1075 c0 -8 4 -12 9 -9 5 3 6 10 3 15 -9 13 -12 11 -12 -6z"/>
<path d="M2750 1086 c0 -2 7 -7 16 -10 8 -3 12 -2 9 4 -6 10 -25 14 -25 6z"/>
<path d="M2610 1075 c0 -7 30 -13 34 -7 3 4 -4 9 -15 9 -10 1 -19 0 -19 -2z"/>
<path d="M2535 1060 c-3 -5 -1 -10 4 -10 6 0 11 5 11 10 0 6 -2 10 -4 10 -3 0
-8 -4 -11 -10z"/>
<path d="M2380 1046 c0 -2 8 -10 18 -17 15 -13 16 -12 3 4 -13 16 -21 21 -21
13z"/>
<path d="M2473 1035 c0 -8 4 -12 9 -9 5 3 6 10 3 15 -9 13 -12 11 -12 -6z"/>
<path d="M2830 1000 c0 -5 5 -10 11 -10 5 0 7 5 4 10 -3 6 -8 10 -11 10 -2 0
-4 -4 -4 -10z"/>
<path d="M2456 953 c-6 -14 -5 -15 5 -6 7 7 10 15 7 18 -3 3 -9 -2 -12 -12z"/>
<path d="M3213 555 c0 -8 4 -12 9 -9 5 3 6 10 3 15 -9 13 -12 11 -12 -6z"/>
<path d="M3276 562 c-3 -5 1 -9 9 -9 8 0 12 4 9 9 -3 4 -7 8 -9 8 -2 0 -6 -4
-9 -8z"/>
<path d="M3353 555 c0 -8 4 -12 9 -9 5 3 6 10 3 15 -9 13 -12 11 -12 -6z"/>
<path d="M3796 562 c-3 -5 1 -9 9 -9 8 0 12 4 9 9 -3 4 -7 8 -9 8 -2 0 -6 -4
-9 -8z"/>
<path d="M3115 550 c-3 -5 -1 -10 4 -10 6 0 11 5 11 10 0 6 -2 10 -4 10 -3 0
-8 -4 -11 -10z"/>
</g>
</svg>
